<?xml version="1.0" encoding="UTF-8" standalone="no"?>
<!-- Created with Inkscape (http://www.inkscape.org/) -->
<svg
   xmlns:dc="http://purl.org/dc/elements/1.1/"
   xmlns:cc="http://creativecommons.org/ns#"
   xmlns:rdf="http://www.w3.org/1999/02/22-rdf-syntax-ns#"
   xmlns:svg="http://www.w3.org/2000/svg"
   xmlns="http://www.w3.org/2000/svg"
   xmlns:sodipodi="http://sodipodi.sourceforge.net/DTD/sodipodi-0.dtd"
   xmlns:inkscape="http://www.inkscape.org/namespaces/inkscape"
   width="546.85706"
   height="495.42859"
   id="svg3183"
   sodipodi:version="0.32"
   inkscape:version="0.46"
   version="1.0"
   sodipodi:docname="pirateMapIsland7_crique.svg"
   inkscape:output_extension="org.inkscape.output.svg.inkscape">
  <defs
     id="defs3185">
    <inkscape:perspective
       sodipodi:type="inkscape:persp3d"
       inkscape:vp_x="0 : 526.18109 : 1"
       inkscape:vp_y="0 : 1000 : 0"
       inkscape:vp_z="744.09448 : 526.18109 : 1"
       inkscape:persp3d-origin="372.04724 : 350.78739 : 1"
       id="perspective3191" />
  </defs>
  <sodipodi:namedview
     id="base"
     pagecolor="#ffffff"
     bordercolor="#666666"
     borderopacity="1.0"
     inkscape:pageopacity="0.0"
     inkscape:pageshadow="2"
     inkscape:zoom="0.35"
     inkscape:cx="375"
     inkscape:cy="405.71429"
     inkscape:document-units="px"
     inkscape:current-layer="layer1"
     showgrid="false"
     inkscape:window-width="640"
     inkscape:window-height="667"
     inkscape:window-x="220"
     inkscape:window-y="35" />
  <metadata
     id="metadata3188">
    <rdf:RDF>
      <cc:Work
         rdf:about="">
        <dc:format>image/svg+xml</dc:format>
        <dc:type
           rdf:resource="http://purl.org/dc/dcmitype/StillImage" />
      </cc:Work>
    </rdf:RDF>
  </metadata>
  <g
     inkscape:label="Calque 1"
     inkscape:groupmode="layer"
     id="layer1"
     transform="translate(-581.53569,896.84957)">
    <path
       style="fill:#ffff00;fill-opacity:1;fill-rule:nonzero;stroke:#000000;stroke-width:4.50582789999999990;stroke-linecap:butt;stroke-linejoin:miter;stroke-miterlimit:4;stroke-dasharray:none;stroke-opacity:1"
       d="M 1113.2268,-807.96319 L 825.90968,-894.59666 L 709.69151,-852.88422 L 651.58252,-676.40879 L 583.7886,-519.18522 L 729.06125,-493.516 L 822.6814,-403.67389 L 893.7036,-451.80367 L 1126.1398,-573.73211 L 929.21469,-634.69635 L 909.845,-772.66817 L 1113.2268,-807.96319 z"
       id="path3254" />
    <text
       xml:space="preserve"
       style="font-size:40px;font-style:normal;font-variant:normal;font-weight:normal;font-stretch:normal;text-align:start;line-height:125%;writing-mode:lr-tb;text-anchor:start;fill:#000000;fill-opacity:1;stroke:none;stroke-width:1px;stroke-linecap:butt;stroke-linejoin:miter;stroke-opacity:1;font-family:Arial;-inkscape-font-specification:Arial"
       x="746.67853"
       y="-825.13525"
       id="text2380"
       sodipodi:linespacing="125%"><tspan
         sodipodi:role="line"
         id="tspan2382"
         x="746.67853"
         y="-825.13525">Crique</tspan></text>
    <path
       style="fill:#999999;fill-rule:evenodd;stroke:#000000;stroke-width:1px;stroke-linecap:butt;stroke-linejoin:miter;stroke-opacity:1"
       d="M 325.71429,121.14287 C 303.23119,129.98256 282.434,135.53438 260,141.14287 C 239.55368,146.25446 221.79561,146.85716 200,146.85716 C 181.95197,146.85716 167.08416,144.00002 148.57143,144.00002 C 128.88618,144.00002 139.31559,164.11953 142.85714,178.28573 C 146.77534,193.95852 137.46204,199.86614 134.28571,212.57145 C 130.9796,225.79591 142.66658,246.0949 145.71429,258.28573 C 150.00364,275.44313 148.59352,292.461 145.71429,306.85716 C 142.52935,322.78184 142.60542,337.27885 145.71429,349.7143 C 148.09804,359.24931 193.6928,350.57682 197.14286,349.7143 C 224.20983,342.94756 239.35439,334.78298 260,355.42859 C 281.56597,376.99456 289.98257,390.7988 314.28571,372.57145 C 326.88745,363.12015 336.30328,344.50118 340,329.7143 C 343.56855,315.44012 342.85714,299.73857 342.85714,284.00002 C 342.85714,273.75555 344.20256,261.47549 345.71429,255.42859"
       id="path2382"
       transform="translate(581.53569,-896.84957)" />
    <path
       style="fill:#0000ff;fill-rule:evenodd;stroke:#000000;stroke-width:1px;stroke-linecap:butt;stroke-linejoin:miter;stroke-opacity:1"
       d="M 134.28571,358.28573 C 125.61421,354.23998 117.14286,339.79737 117.14286,315.42859 C 117.14286,297.20719 127.7347,295.42859 145.71429,295.42859 C 152.85227,295.42859 166.7383,281.14287 182.85714,281.14287 C 203.16028,281.14287 200,287.7334 200,306.85716 C 200,327.11074 204.66502,334.08866 208.57143,349.7143 C 213.24782,368.41988 197.84308,369.7143 182.85714,369.7143 C 162.37022,369.7143 149.3304,373.33041 134.28571,358.28573 z"
       id="path2384"
       transform="translate(581.53569,-896.84957)" />
    <path
       style="fill:#550000;fill-rule:evenodd;stroke:#000000;stroke-width:1px;stroke-linecap:butt;stroke-linejoin:miter;stroke-opacity:1"
       d="M 122.85714,189.7143 C 129.37176,196.16076 128.57143,219.29485 128.57143,235.42859 C 128.57143,255.59635 127.64414,263.07273 137.14286,272.57145 C 151.39738,286.82597 162.92833,267.14191 160,255.42859 C 157.24834,244.42193 151.41098,229.64394 148.57143,218.28573 C 144.03075,200.12301 151.39153,192.53441 140,181.14287 C 135.48246,176.62534 128.57143,186.85716 122.85714,189.7143 z"
       id="path2386"
       transform="translate(581.53569,-896.84957)" />
    <path
       style="fill:#ff0000;fill-rule:evenodd;stroke:#000000;stroke-width:1px;stroke-linecap:butt;stroke-linejoin:miter;stroke-opacity:1"
       d="M 142.85714,181.14287 C 136.19048,174.47621 153.42905,201.14287 162.85714,201.14287 C 169.79458,201.14287 173.63324,162.67721 142.85714,181.14287 z"
       id="path2388"
       transform="translate(581.53569,-896.84957)" />
  </g>
</svg>
