<?xml version="1.0" encoding="UTF-8" standalone="no"?>
<!-- Created with Inkscape (http://www.inkscape.org/) -->
<svg
   xmlns:dc="http://purl.org/dc/elements/1.1/"
   xmlns:cc="http://creativecommons.org/ns#"
   xmlns:rdf="http://www.w3.org/1999/02/22-rdf-syntax-ns#"
   xmlns:svg="http://www.w3.org/2000/svg"
   xmlns="http://www.w3.org/2000/svg"
   xmlns:sodipodi="http://sodipodi.sourceforge.net/DTD/sodipodi-0.dtd"
   xmlns:inkscape="http://www.inkscape.org/namespaces/inkscape"
   width="534.7193"
   height="502.07162"
   id="svg3183"
   sodipodi:version="0.32"
   inkscape:version="0.46"
   version="1.0"
   sodipodi:docname="pirateMapIsland5_equipage.svg"
   inkscape:output_extension="org.inkscape.output.svg.inkscape">
  <defs
     id="defs3185">
    <inkscape:perspective
       sodipodi:type="inkscape:persp3d"
       inkscape:vp_x="0 : 526.18109 : 1"
       inkscape:vp_y="0 : 1000 : 0"
       inkscape:vp_z="744.09448 : 526.18109 : 1"
       inkscape:persp3d-origin="372.04724 : 350.78739 : 1"
       id="perspective3191" />
  </defs>
  <sodipodi:namedview
     id="base"
     pagecolor="#ffffff"
     bordercolor="#666666"
     borderopacity="1.0"
     inkscape:pageopacity="0.0"
     inkscape:pageshadow="2"
     inkscape:zoom="0.35"
     inkscape:cx="375"
     inkscape:cy="520"
     inkscape:document-units="px"
     inkscape:current-layer="layer1"
     showgrid="false"
     inkscape:window-width="640"
     inkscape:window-height="667"
     inkscape:window-x="427"
     inkscape:window-y="5" />
  <metadata
     id="metadata3188">
    <rdf:RDF>
      <cc:Work
         rdf:about="">
        <dc:format>image/svg+xml</dc:format>
        <dc:type
           rdf:resource="http://purl.org/dc/dcmitype/StillImage" />
      </cc:Work>
    </rdf:RDF>
  </metadata>
  <g
     inkscape:label="Calque 1"
     inkscape:groupmode="layer"
     id="layer1"
     transform="translate(-81.211775,-184.18352)">
    <path
       style="opacity:1;fill:#55d400;fill-rule:nonzero;stroke:#000000;stroke-width:4;stroke-miterlimit:4;stroke-dasharray:none;stroke-opacity:1"
       d="M 191.30134,675.89482 C 181.70903,673.65182 156.10033,668.81432 134.39294,665.14512 L 94.924925,658.47372 L 90.410695,616.89652 C 87.927855,594.02912 85.292425,569.63212 84.554165,562.68112 L 83.211775,550.04282 L 118.34954,522.54142 C 137.67517,507.41552 153.98345,494.47562 154.58958,493.78602 C 156.68439,491.40302 183.2742,443.84992 181.87676,442.62152 C 180.71541,441.60052 156.17295,401.03072 123.40799,412.97972 C 119.10413,414.54912 126.63839,401.72612 164.47112,343.09002 C 164.83979,342.51882 232.63131,367.17482 241.78594,369.94452 C 250.94058,372.71432 281.6714,357.40142 282.14014,356.86822 C 282.60889,356.33502 360.21215,332.36952 360.96807,331.07062 L 445.28527,186.18352 C 492.60161,233.87402 563.96901,213.08192 593.78204,267.85822 C 624.85318,324.94602 611.12377,684.15722 609.63036,684.25322 C 608.13655,684.34932 215.90945,680.80872 210.22262,680.14602 C 209.40829,680.05122 200.89366,678.13812 191.30135,675.89492 L 191.30134,675.89482 z"
       id="path2400"
       sodipodi:nodetypes="cccccccssssssscssscc" />
  </g>
</svg>
