<?xml version="1.0" encoding="UTF-8" standalone="no"?>
<!-- Created with Inkscape (http://www.inkscape.org/) -->
<svg
   xmlns:dc="http://purl.org/dc/elements/1.1/"
   xmlns:cc="http://creativecommons.org/ns#"
   xmlns:rdf="http://www.w3.org/1999/02/22-rdf-syntax-ns#"
   xmlns:svg="http://www.w3.org/2000/svg"
   xmlns="http://www.w3.org/2000/svg"
   xmlns:xlink="http://www.w3.org/1999/xlink"
   xmlns:sodipodi="http://sodipodi.sourceforge.net/DTD/sodipodi-0.dtd"
   xmlns:inkscape="http://www.inkscape.org/namespaces/inkscape"
   width="2125.9841"
   height="2125.9841"
   id="svg2"
   sodipodi:version="0.32"
   inkscape:version="0.46"
   version="1.0"
   sodipodi:docname="pirateMapIsland1_map.svg"
   inkscape:output_extension="org.inkscape.output.svg.inkscape">
  <defs
     id="defs4">
    <linearGradient
       id="linearGradient3164">
      <stop
         style="stop-color:#1650e4;stop-opacity:1;"
         offset="0"
         id="stop3166" />
      <stop
         id="stop3172"
         offset="1"
         style="stop-color:#1618ef;stop-opacity:0.49803922;" />
    </linearGradient>
    <linearGradient
       id="linearGradient3175">
      <stop
         style="stop-color:#4285ff;stop-opacity:1;"
         offset="0"
         id="stop3177" />
      <stop
         style="stop-color:#80e5ff;stop-opacity:0;"
         offset="1"
         id="stop3179" />
    </linearGradient>
    <inkscape:perspective
       sodipodi:type="inkscape:persp3d"
       inkscape:vp_x="0 : 526.18109 : 1"
       inkscape:vp_y="0 : 1000 : 0"
       inkscape:vp_z="744.09448 : 526.18109 : 1"
       inkscape:persp3d-origin="372.04724 : 350.78739 : 1"
       id="perspective10" />
    <linearGradient
       inkscape:collect="always"
       xlink:href="#linearGradient3175"
       id="linearGradient3181"
       x1="625.71429"
       y1="185.84909"
       x2="1708.8416"
       y2="1731.5634"
       gradientUnits="userSpaceOnUse" />
    <radialGradient
       inkscape:collect="always"
       xlink:href="#linearGradient3164"
       id="radialGradient3170"
       cx="1267.1428"
       cy="948.09973"
       fx="1267.1428"
       fy="948.09973"
       r="444.96249"
       gradientTransform="matrix(-3.3794997e-2,1.7593778,-1.3689601,-2.629566e-2,2607.8766,-1344.1822)"
       gradientUnits="userSpaceOnUse"
       spreadMethod="pad" />
    <radialGradient
       inkscape:collect="always"
       xlink:href="#linearGradient3164"
       id="radialGradient3256"
       gradientUnits="userSpaceOnUse"
       gradientTransform="matrix(-3.3794997e-2,1.7593778,-1.3689601,-2.629566e-2,2607.8766,-1344.1822)"
       spreadMethod="pad"
       cx="1267.1428"
       cy="948.09973"
       fx="1267.1428"
       fy="948.09973"
       r="444.96249" />
    <linearGradient
       inkscape:collect="always"
       xlink:href="#linearGradient3175"
       id="linearGradient2399"
       gradientUnits="userSpaceOnUse"
       x1="625.71429"
       y1="185.84909"
       x2="1708.8416"
       y2="1731.5634"
       gradientTransform="translate(-574.4207,291.56354)" />
    <linearGradient
       inkscape:collect="always"
       xlink:href="#linearGradient3175"
       id="linearGradient2403"
       gradientUnits="userSpaceOnUse"
       x1="-108.57142"
       y1="2111.5635"
       x2="1605.9844"
       y2="1602.9919"
       gradientTransform="translate(6.0584068e-5,-5.9724693e-5)" />
  </defs>
  <sodipodi:namedview
     id="base"
     pagecolor="#ffffff"
     bordercolor="#666666"
     borderopacity="1.0"
     inkscape:pageopacity="0.0"
     inkscape:pageshadow="2"
     inkscape:zoom="0.35"
     inkscape:cx="585.81069"
     inkscape:cy="1247.3316"
     inkscape:document-units="px"
     inkscape:current-layer="layer1"
     showgrid="false"
     units="mm"
     showborder="true"
     inkscape:window-width="1680"
     inkscape:window-height="994"
     inkscape:window-x="0"
     inkscape:window-y="22" />
  <metadata
     id="metadata7">
    <rdf:RDF>
      <cc:Work
         rdf:about="">
        <dc:format>image/svg+xml</dc:format>
        <dc:type
           rdf:resource="http://purl.org/dc/dcmitype/StillImage" />
      </cc:Work>
    </rdf:RDF>
  </metadata>
  <g
     inkscape:label="Calque 1"
     inkscape:groupmode="layer"
     id="layer1">
    <path
       style="opacity:1;fill:#55d400;fill-rule:nonzero;stroke:#000000;stroke-width:4;stroke-miterlimit:4;stroke-dasharray:none;stroke-opacity:1"
       d="M 2096.2811,454.40104 C 2094.0381,463.99335 2089.2006,489.60205 2085.5314,511.30944 L 2078.86,550.77745 L 2037.2828,555.29168 C 2014.4154,557.77452 1990.0184,560.40995 1983.0674,561.14821 L 1970.4291,562.4906 L 1942.9277,527.35284 C 1927.8018,508.02721 1914.8619,491.71893 1914.1723,491.1128 C 1911.7893,489.01799 1818.5219,470.99961 1817.2935,472.39705 C 1816.2725,473.5584 1821.417,489.52943 1833.366,522.29439 C 1834.9354,526.59825 1822.1124,519.06399 1763.4763,481.23126 C 1762.9051,480.86259 1764.704,473.07107 1767.4737,463.91644 C 1770.2435,454.7618 1772.0734,446.88812 1771.5402,446.41938 C 1771.007,445.95063 1735.2171,456.08767 1692.0072,468.94597 C 1648.7972,481.80428 1612.5497,491.48032 1611.4569,490.4486 C 1610.364,489.41662 1589.3078,466.87984 1564.665,440.36676 L 1519.8599,392.16097 L 1523.7127,220.41711 C 1571.4032,173.10077 1645.4425,97.277194 1688.2445,51.920344 C 1731.0466,6.5634943 1805.8799,198.27088 1854.8584,49.365124 C 1857.4081,41.613484 1862.0049,43.620924 1932.6291,47.030974 C 1972.1388,48.938564 2004.5435,51.721474 2004.6395,53.214884 C 2004.7356,54.708694 1995.1343,105.74643 1983.3033,166.63237 C 1971.4723,227.51872 1961.8955,278.93787 1962.0216,280.89782 C 1962.1476,282.85747 1975.7807,297.99951 1992.3175,314.54649 C 2047.2916,369.55427 2101.195,429.79293 2100.5323,435.47976 C 2100.4375,436.29409 2098.5244,444.80872 2096.2812,454.40103 L 2096.2811,454.40104 z"
       id="path2400"
       sodipodi:nodetypes="cccccccsssssssscccsssssssscc" />
    <path
       style="fill:#55d400;fill-rule:nonzero;stroke:#000000;stroke-width:4;stroke-linecap:butt;stroke-linejoin:miter;stroke-opacity:1;fill-opacity:1;stroke-miterlimit:4;stroke-dasharray:none"
       d="M 431.42857,640.26981 L 425.71427,537.41271 L 545.71427,411.69841 L 657.14287,431.69841 L 617.14287,288.84131 L 679.99997,60.269843 L 454.28567,60.269843 L 362.85717,214.55561 L 231.42857,154.55561 L 282.85717,251.69841 L 159.99997,220.26981 L 225.71427,328.84131 L 57.142871,388.84121 L 99.999971,525.98411 L 311.42857,563.12701 L 431.42857,640.26981 z"
       id="path2391"
       sodipodi:nodetypes="cccccccccccccccc" />
  </g>
</svg>
